<?xml version="1.0" encoding="utf-8"?>
<!-- Generator: Adobe Illustrator 19.2.1, SVG Export Plug-In . SVG Version: 6.00 Build 0)  -->
<svg version="1.1" id="Layer_1" xmlns="http://www.w3.org/2000/svg" xmlns:xlink="http://www.w3.org/1999/xlink" x="0px" y="0px"
	 viewBox="0 0 64 64" style="enable-background:new 0 0 64 64;" xml:space="preserve">
<style type="text/css">
	.st0{fill:#8BC249;}
	.st1{fill:#FFFFFF;}
</style>
<circle class="st0" cx="32" cy="32" r="32"/>
<g>
	<path class="st1" d="M15.7,26.3c1.1,1,1.6,2.2,1.6,3.9c0,0.9-0.2,1.8-0.5,3c-0.6,1.9-1.5,3.4-3,4.3S10.7,39,8.7,39
		c-1.2,0-2.4-0.2-3.3-0.5c-0.9-0.3-1.6-0.7-2.1-1.2c-0.5-0.5-0.8-1.1-0.8-1.6c0-0.2,0-0.3,0.1-0.5C2.7,34.7,3,34.3,3.4,34
		s0.9-0.4,1.5-0.4c0.8,0,1.4,0.2,1.9,0.6c0.5,0.4,0.7,1,0.7,1.5c0,0.4-0.1,0.8-0.2,1.1C7.7,36.9,8.1,37,8.6,37c0.8,0,1.3-0.3,1.9-1
		c0.5-0.6,1-1.6,1.3-3c-0.9,0.6-1.6,0.7-2.6,0.7c-1.1,0-1.9-0.2-2.8-0.5S5,32.5,4.6,31.9C4.1,31.3,4,30.7,4,30c0-0.3,0-0.7,0.1-1
		c0.3-1.2,1.1-2.2,2.2-3C7.4,25.3,8.9,25,11,25S14.6,25.5,15.7,26.3z M11.4,31.1c0.3-0.4,0.5-1,0.7-1.8c0.1-0.5,0.2-0.9,0.2-1.2
		c0-0.8-0.4-1.2-1-1.2c-0.5,0-0.8,0.2-1.1,0.6c-0.3,0.4-0.5,1-0.8,1.9c-0.1,0.5-0.2,1-0.2,1.2c0,0.8,0.3,1.2,1,1.2
		C10.8,31.7,11.1,31.5,11.4,31.1z"/>
	<path class="st1" d="M32.2,29.4c0,0.8-0.1,1.6-0.4,2.6c-0.7,2.5-1.7,4.2-3.2,5.3c-1.4,1.1-3.3,1.6-5.4,1.6c-3.7,0-5.6-1.4-5.6-4.3
		c0-0.8,0.1-1.7,0.4-2.7c0.7-2.5,1.7-4.2,3.2-5.3c1.4-1.1,3.2-1.6,5.4-1.6C30.4,25.1,32.2,26.5,32.2,29.4z M25.5,27.4
		c-0.3,0.3-0.6,0.8-0.9,1.5c-0.3,0.8-0.7,1.7-1.1,3.1c-0.5,1.9-0.8,3.3-0.8,4c0,0.4,0.1,0.7,0.2,0.8c0.1,0.2,0.3,0.2,0.5,0.2
		c0.3,0,0.6-0.1,0.9-0.4c0.3-0.3,0.6-0.8,0.9-1.5c0.3-0.8,0.7-1.8,1-3.2c0.6-1.9,0.8-3.3,0.8-4c0-0.4-0.1-0.7-0.2-0.8
		c-0.1-0.2-0.3-0.2-0.5-0.2C26.1,27,25.8,27.1,25.5,27.4z"/>
	<path class="st1" d="M46.9,29.4c0,0.8-0.1,1.6-0.4,2.6c-0.7,2.5-1.7,4.2-3.2,5.3c-1.4,1.1-3.3,1.6-5.4,1.6c-3.7,0-5.6-1.4-5.6-4.3
		c0-0.8,0.1-1.7,0.4-2.7c0.7-2.5,1.7-4.2,3.2-5.3c1.4-1.1,3.2-1.6,5.4-1.6C45,25.1,46.9,26.5,46.9,29.4z M40.1,27.4
		c-0.3,0.3-0.6,0.8-0.9,1.5c-0.3,0.8-0.7,1.7-1.1,3.1c-0.5,1.9-0.8,3.3-0.8,4c0,0.4,0.1,0.7,0.2,0.8c0.1,0.1,0.3,0.2,0.5,0.2
		c0.3,0,0.6-0.1,0.9-0.4c0.3-0.3,0.6-0.8,0.9-1.5c0.3-0.8,0.7-1.8,1-3.2c0.6-1.9,0.8-3.3,0.8-4c0-0.4-0.1-0.7-0.2-0.8
		c-0.1-0.2-0.3-0.2-0.5-0.2C40.7,27,40.4,27.1,40.1,27.4z"/>
	<path class="st1" d="M61.5,29.4c0,0.8-0.1,1.6-0.4,2.6c-0.7,2.5-1.7,4.2-3.2,5.3c-1.4,1.1-3.3,1.6-5.4,1.6c-3.7,0-5.6-1.4-5.6-4.3
		c0-0.8,0.1-1.7,0.4-2.7c0.7-2.5,1.7-4.2,3.2-5.3c1.4-1.1,3.2-1.6,5.4-1.6C59.6,25.1,61.5,26.5,61.5,29.4z M54.8,27.4
		c-0.3,0.3-0.6,0.8-0.9,1.5c-0.3,0.8-0.7,1.7-1.1,3.1c-0.5,1.9-0.8,3.3-0.8,4c0,0.4,0.1,0.7,0.2,0.8s0.3,0.2,0.5,0.2
		c0.3,0,0.6-0.1,0.9-0.4c0.3-0.3,0.6-0.8,0.9-1.5c0.3-0.8,0.7-1.8,1-3.2c0.6-1.9,0.8-3.3,0.8-4c0-0.4-0.1-0.7-0.2-0.8
		c-0.1-0.2-0.3-0.2-0.5-0.2C55.3,27,55.1,27.1,54.8,27.4z"/>
</g>
</svg>
